M48
;DRILL file {kicad (2014-jan-25)-product} date Sun 13 Jul 2014 08:16:33 AM PDT
;FORMAT={2:4/ absolute / inch / suppress leading zeros}
FMAT,2
INCH,TZ
T1C0.025
T2C0.039
T3C0.040
T4C0.080
T5C0.125
T6C0.150
%
G90
G05
M72
T1
X49000Y-44000
T2
X38500Y-51250
X38500Y-52250
X38500Y-53250
X41500Y-51250
X41500Y-52250
X41500Y-53250
T3
X31750Y-56266
X31750Y-58234
X32000Y-41500
X32000Y-42500
X32000Y-43500
X32000Y-44500
X32000Y-45500
X32000Y-46500
X32000Y-47500
X32000Y-48500
X33000Y-41500
X33000Y-42500
X33000Y-43500
X33000Y-44500
X33000Y-45500
X33000Y-46500
X33000Y-47500
X33000Y-48500
X34766Y-58000
X36734Y-58000
X38995Y-50000
X38995Y-54750
X39016Y-58000
X40984Y-58000
X41005Y-50000
X41005Y-54750
X43266Y-58000
X45234Y-58000
X47000Y-41500
X47000Y-42500
X47000Y-43500
X47000Y-44500
X47000Y-45500
X47000Y-46500
X47000Y-47500
X47000Y-48500
X48000Y-41500
X48000Y-42500
X48000Y-43500
X48000Y-44500
X48000Y-45500
X48000Y-46500
X48000Y-47500
X48000Y-48500
X48250Y-56266
X48250Y-58234
T4
X36880Y-44550
X36880Y-47950
X40000Y-44550
X40000Y-47950
X43120Y-44550
X43120Y-47950
T5
X40000Y-42000
T6
X31900Y-52250
X48100Y-52250
T0
M30
