M48
;DRILL file {kicad (2014-jan-25)-product} date Sat 05 Jul 2014 12:23:19 AM PDT
;FORMAT={-:-/ absolute / metric / decimal}
FMAT,2
METRIC,TZ
T1C1.001
T2C1.016
T3C2.032
T4C3.175
T5C3.800
%
G90
G05
M71
T1
X97.79Y-130.175
X97.79Y-132.715
X97.79Y-135.255
X105.41Y-130.175
X105.41Y-132.715
X105.41Y-135.255
T2
X80.645Y-142.915
X80.645Y-147.915
X81.28Y-105.41
X81.28Y-107.95
X81.28Y-110.49
X81.28Y-113.03
X81.28Y-115.57
X81.28Y-118.11
X81.28Y-120.65
X81.28Y-123.19
X83.82Y-105.41
X83.82Y-107.95
X83.82Y-110.49
X83.82Y-113.03
X83.82Y-115.57
X83.82Y-118.11
X83.82Y-120.65
X83.82Y-123.19
X88.305Y-147.32
X93.305Y-147.32
X99.047Y-127.
X99.047Y-139.065
X99.1Y-147.32
X104.1Y-147.32
X104.153Y-127.
X104.153Y-139.065
X109.895Y-147.32
X114.895Y-147.32
X119.38Y-105.41
X119.38Y-107.95
X119.38Y-110.49
X119.38Y-113.03
X119.38Y-115.57
X119.38Y-118.11
X119.38Y-120.65
X119.38Y-123.19
X121.92Y-105.41
X121.92Y-107.95
X121.92Y-110.49
X121.92Y-113.03
X121.92Y-115.57
X121.92Y-118.11
X121.92Y-120.65
X121.92Y-123.19
X122.555Y-142.915
X122.555Y-147.915
T3
X93.675Y-113.157
X93.675Y-121.793
X101.6Y-113.157
X101.6Y-121.793
X109.525Y-113.157
X109.525Y-121.793
T4
X101.6Y-106.68
T5
X81.026Y-132.715
X122.174Y-132.715
T0
M30
