%FSLAX34Y34*%
G04 Gerber Fmt 3.4, Leading zero omitted, Abs format*
G04 (created by PCBNEW (2014-jan-25)-product) date Sat 05 Jul 2014 12:29:26 AM PDT*
%MOIN*%
G01*
G70*
G90*
G04 APERTURE LIST*
%ADD10C,0.003937*%
%ADD11C,0.236220*%
%ADD12R,0.068000X0.068000*%
%ADD13O,0.068000X0.068000*%
%ADD14C,0.080000*%
%ADD15O,0.137800X0.066900*%
%ADD16C,0.149600*%
%ADD17C,0.150000*%
%ADD18C,0.040000*%
%ADD19C,0.010000*%
G04 APERTURE END LIST*
G54D10*
G54D11*
X40000Y-42000D03*
G54D12*
X32000Y-41500D03*
G54D13*
X33000Y-41500D03*
X32000Y-42500D03*
X33000Y-42500D03*
X32000Y-43500D03*
X33000Y-43500D03*
X32000Y-44500D03*
X33000Y-44500D03*
X32000Y-45500D03*
X33000Y-45500D03*
X32000Y-46500D03*
X33000Y-46500D03*
X32000Y-47500D03*
X33000Y-47500D03*
X32000Y-48500D03*
X33000Y-48500D03*
G54D12*
X47000Y-41500D03*
G54D13*
X48000Y-41500D03*
X47000Y-42500D03*
X48000Y-42500D03*
X47000Y-43500D03*
X48000Y-43500D03*
X47000Y-44500D03*
X48000Y-44500D03*
X47000Y-45500D03*
X48000Y-45500D03*
X47000Y-46500D03*
X48000Y-46500D03*
X47000Y-47500D03*
X48000Y-47500D03*
X47000Y-48500D03*
X48000Y-48500D03*
G54D14*
X48250Y-58234D03*
X48250Y-56265D03*
X34765Y-58000D03*
X36734Y-58000D03*
X31750Y-56265D03*
X31750Y-58234D03*
G54D15*
X41500Y-52250D03*
X41500Y-51250D03*
X41500Y-53250D03*
G54D16*
X48100Y-52250D03*
G54D15*
X38500Y-52250D03*
X38500Y-53250D03*
X38500Y-51250D03*
G54D16*
X31900Y-52250D03*
G54D14*
X41005Y-54750D03*
X38995Y-54750D03*
X41005Y-50000D03*
X38995Y-50000D03*
G54D17*
X40000Y-47950D03*
X40000Y-44550D03*
X43120Y-47950D03*
X36880Y-44550D03*
X43120Y-44550D03*
X36880Y-47950D03*
G54D14*
X39015Y-58000D03*
X40984Y-58000D03*
X43265Y-58000D03*
X45234Y-58000D03*
G54D18*
X31750Y-56265D02*
X32734Y-57250D01*
X32734Y-57250D02*
X34015Y-57250D01*
X47000Y-43500D02*
X45500Y-43500D01*
X45000Y-43000D02*
X41000Y-43000D01*
X45500Y-43500D02*
X45000Y-43000D01*
X34765Y-58000D02*
X34015Y-57250D01*
X48000Y-43500D02*
X47000Y-43500D01*
X41000Y-43000D02*
X40000Y-42000D01*
X33000Y-48500D02*
X33000Y-48500D01*
X38800Y-45750D02*
X40000Y-44550D01*
X35750Y-45750D02*
X38800Y-45750D01*
X33000Y-48500D02*
X35750Y-45750D01*
X33000Y-48500D02*
X32000Y-48500D01*
X48000Y-41500D02*
X47000Y-41500D01*
X43265Y-58000D02*
X44265Y-57000D01*
X47015Y-57000D02*
X48250Y-58234D01*
X44265Y-57000D02*
X47015Y-57000D01*
X41500Y-51250D02*
X44250Y-48500D01*
X44250Y-48500D02*
X47000Y-48500D01*
X48000Y-48500D02*
X47000Y-48500D01*
X39015Y-58000D02*
X39015Y-56484D01*
X39015Y-56484D02*
X40000Y-55500D01*
X40750Y-52250D02*
X41500Y-52250D01*
X40000Y-53000D02*
X40750Y-52250D01*
X40000Y-55500D02*
X40000Y-53000D01*
X31750Y-58234D02*
X32515Y-59000D01*
X35734Y-59000D02*
X36734Y-58000D01*
X32515Y-59000D02*
X35734Y-59000D01*
X38995Y-50000D02*
X38930Y-50000D01*
X38930Y-50000D02*
X36880Y-47950D01*
X38500Y-51250D02*
X39755Y-51250D01*
X39755Y-51250D02*
X41005Y-50000D01*
X40984Y-58000D02*
X41984Y-59000D01*
X44234Y-59000D02*
X45234Y-58000D01*
X41984Y-59000D02*
X44234Y-59000D01*
G54D19*
G36*
X49700Y-60200D02*
X49098Y-60200D01*
X49098Y-52052D01*
X48946Y-51685D01*
X48679Y-51418D01*
X48679Y-43617D01*
X48679Y-43382D01*
X48583Y-43130D01*
X48400Y-42939D01*
X48417Y-42928D01*
X48545Y-42737D01*
X48590Y-42511D01*
X48590Y-42488D01*
X48545Y-42262D01*
X48417Y-42071D01*
X48310Y-42000D01*
X48417Y-41928D01*
X48545Y-41737D01*
X48590Y-41511D01*
X48590Y-41488D01*
X48545Y-41262D01*
X48417Y-41071D01*
X48225Y-40943D01*
X48000Y-40898D01*
X47774Y-40943D01*
X47614Y-41050D01*
X47565Y-41050D01*
X47551Y-41018D01*
X47481Y-40948D01*
X47389Y-40910D01*
X47290Y-40910D01*
X46610Y-40910D01*
X46518Y-40948D01*
X46448Y-41018D01*
X46410Y-41110D01*
X46410Y-41209D01*
X46410Y-41889D01*
X46448Y-41981D01*
X46518Y-42051D01*
X46578Y-42077D01*
X46454Y-42262D01*
X46410Y-42488D01*
X46410Y-42511D01*
X46454Y-42737D01*
X46582Y-42928D01*
X46599Y-42939D01*
X46416Y-43130D01*
X46320Y-43382D01*
X46397Y-43490D01*
X46990Y-43490D01*
X46990Y-43482D01*
X47010Y-43482D01*
X47010Y-43490D01*
X47397Y-43490D01*
X47602Y-43490D01*
X47990Y-43490D01*
X47990Y-43482D01*
X48010Y-43482D01*
X48010Y-43490D01*
X48602Y-43490D01*
X48679Y-43382D01*
X48679Y-43617D01*
X48602Y-43510D01*
X48010Y-43510D01*
X48010Y-43517D01*
X47990Y-43517D01*
X47990Y-43510D01*
X47602Y-43510D01*
X47397Y-43510D01*
X47010Y-43510D01*
X47010Y-43517D01*
X46990Y-43517D01*
X46990Y-43510D01*
X46397Y-43510D01*
X46320Y-43617D01*
X46416Y-43869D01*
X46599Y-44060D01*
X46582Y-44071D01*
X46454Y-44262D01*
X46410Y-44488D01*
X46410Y-44511D01*
X46454Y-44737D01*
X46582Y-44928D01*
X46689Y-45000D01*
X46582Y-45071D01*
X46454Y-45262D01*
X46410Y-45488D01*
X46410Y-45511D01*
X46454Y-45737D01*
X46582Y-45928D01*
X46689Y-46000D01*
X46582Y-46071D01*
X46454Y-46262D01*
X46410Y-46488D01*
X46410Y-46511D01*
X46454Y-46737D01*
X46582Y-46928D01*
X46689Y-47000D01*
X46582Y-47071D01*
X46454Y-47262D01*
X46410Y-47488D01*
X46410Y-47511D01*
X46454Y-47737D01*
X46582Y-47928D01*
X46689Y-48000D01*
X46614Y-48050D01*
X44250Y-48050D01*
X44119Y-48075D01*
X44120Y-47751D01*
X44120Y-44351D01*
X43968Y-43984D01*
X43687Y-43702D01*
X43319Y-43550D01*
X42921Y-43549D01*
X42554Y-43701D01*
X42272Y-43982D01*
X42120Y-44350D01*
X42119Y-44748D01*
X42271Y-45115D01*
X42552Y-45397D01*
X42920Y-45549D01*
X43318Y-45550D01*
X43685Y-45398D01*
X43967Y-45117D01*
X44119Y-44749D01*
X44120Y-44351D01*
X44120Y-47751D01*
X43968Y-47384D01*
X43687Y-47102D01*
X43319Y-46950D01*
X42921Y-46949D01*
X42554Y-47101D01*
X42272Y-47382D01*
X42120Y-47750D01*
X42119Y-48148D01*
X42271Y-48515D01*
X42552Y-48797D01*
X42920Y-48949D01*
X43163Y-48950D01*
X41448Y-50665D01*
X41127Y-50665D01*
X40938Y-50703D01*
X40991Y-50649D01*
X41133Y-50650D01*
X41372Y-50551D01*
X41555Y-50368D01*
X41654Y-50129D01*
X41655Y-49871D01*
X41556Y-49632D01*
X41540Y-49616D01*
X41540Y-41745D01*
X41325Y-41175D01*
X41268Y-41090D01*
X41049Y-40965D01*
X40014Y-42000D01*
X41049Y-43034D01*
X41268Y-42909D01*
X41520Y-42354D01*
X41540Y-41745D01*
X41540Y-49616D01*
X41373Y-49449D01*
X41134Y-49350D01*
X41034Y-49350D01*
X41034Y-43049D01*
X40000Y-42014D01*
X39985Y-42028D01*
X39985Y-42000D01*
X38950Y-40965D01*
X38731Y-41090D01*
X38479Y-41645D01*
X38459Y-42254D01*
X38674Y-42824D01*
X38731Y-42909D01*
X38950Y-43034D01*
X39985Y-42000D01*
X39985Y-42028D01*
X38965Y-43049D01*
X39090Y-43268D01*
X39645Y-43520D01*
X40254Y-43540D01*
X40824Y-43325D01*
X40909Y-43268D01*
X41034Y-43049D01*
X41034Y-49350D01*
X41000Y-49349D01*
X41000Y-47751D01*
X41000Y-44351D01*
X40848Y-43984D01*
X40567Y-43702D01*
X40199Y-43550D01*
X39801Y-43549D01*
X39434Y-43701D01*
X39152Y-43982D01*
X39000Y-44350D01*
X38999Y-44748D01*
X39048Y-44865D01*
X38613Y-45300D01*
X37544Y-45300D01*
X37727Y-45117D01*
X37879Y-44749D01*
X37880Y-44351D01*
X37728Y-43984D01*
X37447Y-43702D01*
X37079Y-43550D01*
X36681Y-43549D01*
X36314Y-43701D01*
X36032Y-43982D01*
X35880Y-44350D01*
X35879Y-44748D01*
X36031Y-45115D01*
X36215Y-45300D01*
X35750Y-45300D01*
X35577Y-45334D01*
X35431Y-45431D01*
X33554Y-47309D01*
X33545Y-47262D01*
X33417Y-47071D01*
X33310Y-47000D01*
X33417Y-46928D01*
X33545Y-46737D01*
X33590Y-46511D01*
X33590Y-46488D01*
X33545Y-46262D01*
X33417Y-46071D01*
X33310Y-46000D01*
X33417Y-45928D01*
X33545Y-45737D01*
X33590Y-45511D01*
X33590Y-45488D01*
X33545Y-45262D01*
X33417Y-45071D01*
X33310Y-45000D01*
X33417Y-44928D01*
X33545Y-44737D01*
X33590Y-44511D01*
X33590Y-44488D01*
X33545Y-44262D01*
X33417Y-44071D01*
X33310Y-44000D01*
X33417Y-43928D01*
X33545Y-43737D01*
X33590Y-43511D01*
X33590Y-43488D01*
X33545Y-43262D01*
X33417Y-43071D01*
X33310Y-43000D01*
X33417Y-42928D01*
X33545Y-42737D01*
X33590Y-42511D01*
X33590Y-42488D01*
X33545Y-42262D01*
X33417Y-42071D01*
X33310Y-42000D01*
X33417Y-41928D01*
X33545Y-41737D01*
X33590Y-41511D01*
X33590Y-41488D01*
X33545Y-41262D01*
X33417Y-41071D01*
X33225Y-40943D01*
X33000Y-40898D01*
X32774Y-40943D01*
X32582Y-41071D01*
X32577Y-41079D01*
X32551Y-41018D01*
X32481Y-40948D01*
X32389Y-40910D01*
X32290Y-40910D01*
X31610Y-40910D01*
X31518Y-40948D01*
X31448Y-41018D01*
X31410Y-41110D01*
X31410Y-41209D01*
X31410Y-41889D01*
X31448Y-41981D01*
X31518Y-42051D01*
X31578Y-42077D01*
X31454Y-42262D01*
X31410Y-42488D01*
X31410Y-42511D01*
X31454Y-42737D01*
X31582Y-42928D01*
X31689Y-43000D01*
X31582Y-43071D01*
X31454Y-43262D01*
X31410Y-43488D01*
X31410Y-43511D01*
X31454Y-43737D01*
X31582Y-43928D01*
X31689Y-44000D01*
X31582Y-44071D01*
X31454Y-44262D01*
X31410Y-44488D01*
X31410Y-44511D01*
X31454Y-44737D01*
X31582Y-44928D01*
X31689Y-45000D01*
X31582Y-45071D01*
X31454Y-45262D01*
X31410Y-45488D01*
X31410Y-45511D01*
X31454Y-45737D01*
X31582Y-45928D01*
X31689Y-46000D01*
X31582Y-46071D01*
X31454Y-46262D01*
X31410Y-46488D01*
X31410Y-46511D01*
X31454Y-46737D01*
X31582Y-46928D01*
X31689Y-47000D01*
X31582Y-47071D01*
X31454Y-47262D01*
X31410Y-47488D01*
X31410Y-47511D01*
X31454Y-47737D01*
X31582Y-47928D01*
X31689Y-48000D01*
X31582Y-48071D01*
X31454Y-48262D01*
X31410Y-48488D01*
X31410Y-48511D01*
X31454Y-48737D01*
X31582Y-48928D01*
X31774Y-49056D01*
X32000Y-49101D01*
X32225Y-49056D01*
X32385Y-48950D01*
X32614Y-48950D01*
X32774Y-49056D01*
X33000Y-49101D01*
X33225Y-49056D01*
X33417Y-48928D01*
X33545Y-48737D01*
X33581Y-48555D01*
X35936Y-46200D01*
X38800Y-46200D01*
X38972Y-46165D01*
X39118Y-46068D01*
X39684Y-45501D01*
X39800Y-45549D01*
X40198Y-45550D01*
X40565Y-45398D01*
X40847Y-45117D01*
X40999Y-44749D01*
X41000Y-44351D01*
X41000Y-47751D01*
X40848Y-47384D01*
X40567Y-47102D01*
X40199Y-46950D01*
X39801Y-46949D01*
X39434Y-47101D01*
X39152Y-47382D01*
X39000Y-47750D01*
X38999Y-48148D01*
X39151Y-48515D01*
X39432Y-48797D01*
X39800Y-48949D01*
X40198Y-48950D01*
X40565Y-48798D01*
X40847Y-48517D01*
X40999Y-48149D01*
X41000Y-47751D01*
X41000Y-49349D01*
X40876Y-49349D01*
X40637Y-49448D01*
X40454Y-49631D01*
X40355Y-49870D01*
X40354Y-50013D01*
X39645Y-50723D01*
X39645Y-49871D01*
X39546Y-49632D01*
X39363Y-49449D01*
X39124Y-49350D01*
X38916Y-49349D01*
X37831Y-48265D01*
X37879Y-48149D01*
X37880Y-47751D01*
X37728Y-47384D01*
X37447Y-47102D01*
X37079Y-46950D01*
X36681Y-46949D01*
X36314Y-47101D01*
X36032Y-47382D01*
X35880Y-47750D01*
X35879Y-48148D01*
X36031Y-48515D01*
X36312Y-48797D01*
X36680Y-48949D01*
X37078Y-48950D01*
X37195Y-48901D01*
X38344Y-50051D01*
X38344Y-50128D01*
X38443Y-50367D01*
X38626Y-50550D01*
X38865Y-50649D01*
X39123Y-50650D01*
X39362Y-50551D01*
X39545Y-50368D01*
X39644Y-50129D01*
X39645Y-49871D01*
X39645Y-50723D01*
X39568Y-50800D01*
X39231Y-50800D01*
X39096Y-50709D01*
X38872Y-50665D01*
X38127Y-50665D01*
X37903Y-50709D01*
X37713Y-50836D01*
X37587Y-51026D01*
X37542Y-51250D01*
X37587Y-51473D01*
X37713Y-51663D01*
X37843Y-51750D01*
X37713Y-51836D01*
X37587Y-52026D01*
X37542Y-52250D01*
X37587Y-52473D01*
X37713Y-52663D01*
X37764Y-52697D01*
X37654Y-52773D01*
X37509Y-52997D01*
X37471Y-53133D01*
X37548Y-53240D01*
X38490Y-53240D01*
X38490Y-53232D01*
X38510Y-53232D01*
X38510Y-53240D01*
X39451Y-53240D01*
X39528Y-53133D01*
X39490Y-52997D01*
X39345Y-52773D01*
X39235Y-52697D01*
X39286Y-52663D01*
X39412Y-52473D01*
X39457Y-52250D01*
X39412Y-52026D01*
X39286Y-51836D01*
X39156Y-51750D01*
X39231Y-51700D01*
X39755Y-51700D01*
X39927Y-51665D01*
X40073Y-51568D01*
X40580Y-51061D01*
X40542Y-51250D01*
X40587Y-51473D01*
X40713Y-51663D01*
X40843Y-51750D01*
X40768Y-51800D01*
X40750Y-51800D01*
X40577Y-51834D01*
X40431Y-51931D01*
X39681Y-52681D01*
X39584Y-52827D01*
X39550Y-53000D01*
X39550Y-54391D01*
X39546Y-54382D01*
X39528Y-54364D01*
X39528Y-53366D01*
X39451Y-53260D01*
X38510Y-53260D01*
X38510Y-53934D01*
X38864Y-53934D01*
X39125Y-53878D01*
X39345Y-53726D01*
X39490Y-53502D01*
X39528Y-53366D01*
X39528Y-54364D01*
X39363Y-54199D01*
X39124Y-54100D01*
X38866Y-54099D01*
X38627Y-54198D01*
X38490Y-54335D01*
X38490Y-53934D01*
X38490Y-53260D01*
X37548Y-53260D01*
X37471Y-53366D01*
X37509Y-53502D01*
X37654Y-53726D01*
X37874Y-53878D01*
X38135Y-53934D01*
X38490Y-53934D01*
X38490Y-54335D01*
X38444Y-54381D01*
X38345Y-54620D01*
X38344Y-54878D01*
X38443Y-55117D01*
X38626Y-55300D01*
X38865Y-55399D01*
X39123Y-55400D01*
X39362Y-55301D01*
X39545Y-55118D01*
X39550Y-55108D01*
X39550Y-55313D01*
X38697Y-56166D01*
X38600Y-56312D01*
X38565Y-56484D01*
X38565Y-57530D01*
X38465Y-57631D01*
X38365Y-57870D01*
X38365Y-58128D01*
X38464Y-58367D01*
X38647Y-58550D01*
X38885Y-58649D01*
X39144Y-58650D01*
X39383Y-58551D01*
X39566Y-58368D01*
X39665Y-58129D01*
X39665Y-57871D01*
X39567Y-57632D01*
X39465Y-57530D01*
X39465Y-56670D01*
X40318Y-55818D01*
X40415Y-55672D01*
X40450Y-55500D01*
X40450Y-55108D01*
X40453Y-55117D01*
X40636Y-55300D01*
X40875Y-55399D01*
X41133Y-55400D01*
X41372Y-55301D01*
X41555Y-55118D01*
X41654Y-54879D01*
X41655Y-54621D01*
X41556Y-54382D01*
X41373Y-54199D01*
X41134Y-54100D01*
X40876Y-54099D01*
X40637Y-54198D01*
X40454Y-54381D01*
X40450Y-54391D01*
X40450Y-53186D01*
X40581Y-53055D01*
X40542Y-53250D01*
X40587Y-53473D01*
X40713Y-53663D01*
X40903Y-53790D01*
X41127Y-53834D01*
X41872Y-53834D01*
X42096Y-53790D01*
X42286Y-53663D01*
X42412Y-53473D01*
X42457Y-53250D01*
X42412Y-53026D01*
X42286Y-52836D01*
X42156Y-52750D01*
X42286Y-52663D01*
X42412Y-52473D01*
X42457Y-52250D01*
X42412Y-52026D01*
X42286Y-51836D01*
X42156Y-51750D01*
X42286Y-51663D01*
X42412Y-51473D01*
X42457Y-51250D01*
X42412Y-51026D01*
X42391Y-50994D01*
X44436Y-48950D01*
X46614Y-48950D01*
X46774Y-49056D01*
X47000Y-49101D01*
X47225Y-49056D01*
X47385Y-48950D01*
X47614Y-48950D01*
X47774Y-49056D01*
X48000Y-49101D01*
X48225Y-49056D01*
X48417Y-48928D01*
X48545Y-48737D01*
X48590Y-48511D01*
X48590Y-48488D01*
X48545Y-48262D01*
X48417Y-48071D01*
X48310Y-48000D01*
X48417Y-47928D01*
X48545Y-47737D01*
X48590Y-47511D01*
X48590Y-47488D01*
X48545Y-47262D01*
X48417Y-47071D01*
X48310Y-47000D01*
X48417Y-46928D01*
X48545Y-46737D01*
X48590Y-46511D01*
X48590Y-46488D01*
X48545Y-46262D01*
X48417Y-46071D01*
X48310Y-46000D01*
X48417Y-45928D01*
X48545Y-45737D01*
X48590Y-45511D01*
X48590Y-45488D01*
X48545Y-45262D01*
X48417Y-45071D01*
X48310Y-45000D01*
X48417Y-44928D01*
X48545Y-44737D01*
X48590Y-44511D01*
X48590Y-44488D01*
X48545Y-44262D01*
X48417Y-44071D01*
X48400Y-44060D01*
X48583Y-43869D01*
X48679Y-43617D01*
X48679Y-51418D01*
X48666Y-51404D01*
X48299Y-51252D01*
X47902Y-51251D01*
X47535Y-51403D01*
X47254Y-51683D01*
X47102Y-52050D01*
X47101Y-52447D01*
X47253Y-52814D01*
X47533Y-53095D01*
X47900Y-53247D01*
X48297Y-53248D01*
X48664Y-53096D01*
X48945Y-52816D01*
X49097Y-52449D01*
X49098Y-52052D01*
X49098Y-60200D01*
X48900Y-60200D01*
X48900Y-58105D01*
X48900Y-56137D01*
X48801Y-55898D01*
X48618Y-55715D01*
X48379Y-55615D01*
X48121Y-55615D01*
X47882Y-55714D01*
X47699Y-55897D01*
X47600Y-56135D01*
X47599Y-56394D01*
X47698Y-56633D01*
X47881Y-56816D01*
X48120Y-56915D01*
X48378Y-56915D01*
X48617Y-56817D01*
X48800Y-56634D01*
X48899Y-56395D01*
X48900Y-56137D01*
X48900Y-58105D01*
X48801Y-57866D01*
X48618Y-57683D01*
X48379Y-57584D01*
X48236Y-57584D01*
X47333Y-56681D01*
X47187Y-56584D01*
X47015Y-56550D01*
X44265Y-56550D01*
X44093Y-56584D01*
X43947Y-56681D01*
X43279Y-57350D01*
X43137Y-57349D01*
X42898Y-57448D01*
X42715Y-57631D01*
X42615Y-57870D01*
X42615Y-58128D01*
X42714Y-58367D01*
X42896Y-58550D01*
X42170Y-58550D01*
X41634Y-58013D01*
X41634Y-57871D01*
X41535Y-57632D01*
X41352Y-57449D01*
X41114Y-57350D01*
X40855Y-57349D01*
X40616Y-57448D01*
X40433Y-57631D01*
X40334Y-57870D01*
X40334Y-58128D01*
X40432Y-58367D01*
X40615Y-58550D01*
X40854Y-58649D01*
X40997Y-58650D01*
X41666Y-59318D01*
X41812Y-59415D01*
X41984Y-59450D01*
X44234Y-59450D01*
X44406Y-59415D01*
X44552Y-59318D01*
X45220Y-58649D01*
X45362Y-58650D01*
X45601Y-58551D01*
X45784Y-58368D01*
X45884Y-58129D01*
X45884Y-57871D01*
X45785Y-57632D01*
X45603Y-57450D01*
X46829Y-57450D01*
X47600Y-58220D01*
X47599Y-58362D01*
X47698Y-58601D01*
X47881Y-58784D01*
X48120Y-58884D01*
X48378Y-58884D01*
X48617Y-58785D01*
X48800Y-58602D01*
X48899Y-58364D01*
X48900Y-58105D01*
X48900Y-60200D01*
X37384Y-60200D01*
X37384Y-57871D01*
X37285Y-57632D01*
X37102Y-57449D01*
X36864Y-57350D01*
X36605Y-57349D01*
X36366Y-57448D01*
X36183Y-57631D01*
X36084Y-57870D01*
X36084Y-58013D01*
X35547Y-58550D01*
X35519Y-58550D01*
X35519Y-57870D01*
X35412Y-57591D01*
X35390Y-57558D01*
X35251Y-57528D01*
X35237Y-57542D01*
X35237Y-57514D01*
X35207Y-57375D01*
X34934Y-57254D01*
X34636Y-57246D01*
X34357Y-57353D01*
X34324Y-57375D01*
X34294Y-57514D01*
X34765Y-57985D01*
X35237Y-57514D01*
X35237Y-57542D01*
X34779Y-58000D01*
X35251Y-58471D01*
X35390Y-58441D01*
X35511Y-58168D01*
X35519Y-57870D01*
X35519Y-58550D01*
X35223Y-58550D01*
X35237Y-58485D01*
X34765Y-58014D01*
X34751Y-58028D01*
X34751Y-58000D01*
X34279Y-57528D01*
X34141Y-57558D01*
X34019Y-57831D01*
X34012Y-58129D01*
X34119Y-58408D01*
X34141Y-58441D01*
X34279Y-58471D01*
X34751Y-58000D01*
X34751Y-58028D01*
X34294Y-58485D01*
X34308Y-58550D01*
X32898Y-58550D01*
X32898Y-52052D01*
X32746Y-51685D01*
X32466Y-51404D01*
X32099Y-51252D01*
X31702Y-51251D01*
X31335Y-51403D01*
X31054Y-51683D01*
X30902Y-52050D01*
X30901Y-52447D01*
X31053Y-52814D01*
X31333Y-53095D01*
X31700Y-53247D01*
X32097Y-53248D01*
X32464Y-53096D01*
X32745Y-52816D01*
X32897Y-52449D01*
X32898Y-52052D01*
X32898Y-58550D01*
X32702Y-58550D01*
X32503Y-58351D01*
X32503Y-56136D01*
X32396Y-55857D01*
X32374Y-55824D01*
X32235Y-55794D01*
X32221Y-55808D01*
X32221Y-55779D01*
X32191Y-55641D01*
X31918Y-55519D01*
X31620Y-55512D01*
X31341Y-55619D01*
X31308Y-55641D01*
X31278Y-55779D01*
X31750Y-56251D01*
X32221Y-55779D01*
X32221Y-55808D01*
X31764Y-56265D01*
X32235Y-56737D01*
X32374Y-56707D01*
X32495Y-56434D01*
X32503Y-56136D01*
X32503Y-58351D01*
X32399Y-58247D01*
X32400Y-58105D01*
X32301Y-57866D01*
X32221Y-57786D01*
X32221Y-56751D01*
X31750Y-56279D01*
X31735Y-56294D01*
X31735Y-56265D01*
X31264Y-55794D01*
X31125Y-55824D01*
X31004Y-56096D01*
X30996Y-56395D01*
X31103Y-56673D01*
X31125Y-56707D01*
X31264Y-56737D01*
X31735Y-56265D01*
X31735Y-56294D01*
X31278Y-56751D01*
X31308Y-56890D01*
X31581Y-57011D01*
X31879Y-57019D01*
X32158Y-56912D01*
X32191Y-56890D01*
X32221Y-56751D01*
X32221Y-57786D01*
X32118Y-57683D01*
X31879Y-57584D01*
X31621Y-57584D01*
X31382Y-57682D01*
X31199Y-57865D01*
X31100Y-58104D01*
X31099Y-58362D01*
X31198Y-58601D01*
X31381Y-58784D01*
X31620Y-58884D01*
X31763Y-58884D01*
X32197Y-59318D01*
X32343Y-59415D01*
X32515Y-59450D01*
X35734Y-59450D01*
X35906Y-59415D01*
X36052Y-59318D01*
X36720Y-58649D01*
X36862Y-58650D01*
X37101Y-58551D01*
X37284Y-58368D01*
X37384Y-58129D01*
X37384Y-57871D01*
X37384Y-60200D01*
X30300Y-60200D01*
X30300Y-40800D01*
X39051Y-40800D01*
X38965Y-40950D01*
X40000Y-41985D01*
X41034Y-40950D01*
X40948Y-40800D01*
X49700Y-40800D01*
X49700Y-60200D01*
X49700Y-60200D01*
G37*
X49700Y-60200D02*
X49098Y-60200D01*
X49098Y-52052D01*
X48946Y-51685D01*
X48679Y-51418D01*
X48679Y-43617D01*
X48679Y-43382D01*
X48583Y-43130D01*
X48400Y-42939D01*
X48417Y-42928D01*
X48545Y-42737D01*
X48590Y-42511D01*
X48590Y-42488D01*
X48545Y-42262D01*
X48417Y-42071D01*
X48310Y-42000D01*
X48417Y-41928D01*
X48545Y-41737D01*
X48590Y-41511D01*
X48590Y-41488D01*
X48545Y-41262D01*
X48417Y-41071D01*
X48225Y-40943D01*
X48000Y-40898D01*
X47774Y-40943D01*
X47614Y-41050D01*
X47565Y-41050D01*
X47551Y-41018D01*
X47481Y-40948D01*
X47389Y-40910D01*
X47290Y-40910D01*
X46610Y-40910D01*
X46518Y-40948D01*
X46448Y-41018D01*
X46410Y-41110D01*
X46410Y-41209D01*
X46410Y-41889D01*
X46448Y-41981D01*
X46518Y-42051D01*
X46578Y-42077D01*
X46454Y-42262D01*
X46410Y-42488D01*
X46410Y-42511D01*
X46454Y-42737D01*
X46582Y-42928D01*
X46599Y-42939D01*
X46416Y-43130D01*
X46320Y-43382D01*
X46397Y-43490D01*
X46990Y-43490D01*
X46990Y-43482D01*
X47010Y-43482D01*
X47010Y-43490D01*
X47397Y-43490D01*
X47602Y-43490D01*
X47990Y-43490D01*
X47990Y-43482D01*
X48010Y-43482D01*
X48010Y-43490D01*
X48602Y-43490D01*
X48679Y-43382D01*
X48679Y-43617D01*
X48602Y-43510D01*
X48010Y-43510D01*
X48010Y-43517D01*
X47990Y-43517D01*
X47990Y-43510D01*
X47602Y-43510D01*
X47397Y-43510D01*
X47010Y-43510D01*
X47010Y-43517D01*
X46990Y-43517D01*
X46990Y-43510D01*
X46397Y-43510D01*
X46320Y-43617D01*
X46416Y-43869D01*
X46599Y-44060D01*
X46582Y-44071D01*
X46454Y-44262D01*
X46410Y-44488D01*
X46410Y-44511D01*
X46454Y-44737D01*
X46582Y-44928D01*
X46689Y-45000D01*
X46582Y-45071D01*
X46454Y-45262D01*
X46410Y-45488D01*
X46410Y-45511D01*
X46454Y-45737D01*
X46582Y-45928D01*
X46689Y-46000D01*
X46582Y-46071D01*
X46454Y-46262D01*
X46410Y-46488D01*
X46410Y-46511D01*
X46454Y-46737D01*
X46582Y-46928D01*
X46689Y-47000D01*
X46582Y-47071D01*
X46454Y-47262D01*
X46410Y-47488D01*
X46410Y-47511D01*
X46454Y-47737D01*
X46582Y-47928D01*
X46689Y-48000D01*
X46614Y-48050D01*
X44250Y-48050D01*
X44119Y-48075D01*
X44120Y-47751D01*
X44120Y-44351D01*
X43968Y-43984D01*
X43687Y-43702D01*
X43319Y-43550D01*
X42921Y-43549D01*
X42554Y-43701D01*
X42272Y-43982D01*
X42120Y-44350D01*
X42119Y-44748D01*
X42271Y-45115D01*
X42552Y-45397D01*
X42920Y-45549D01*
X43318Y-45550D01*
X43685Y-45398D01*
X43967Y-45117D01*
X44119Y-44749D01*
X44120Y-44351D01*
X44120Y-47751D01*
X43968Y-47384D01*
X43687Y-47102D01*
X43319Y-46950D01*
X42921Y-46949D01*
X42554Y-47101D01*
X42272Y-47382D01*
X42120Y-47750D01*
X42119Y-48148D01*
X42271Y-48515D01*
X42552Y-48797D01*
X42920Y-48949D01*
X43163Y-48950D01*
X41448Y-50665D01*
X41127Y-50665D01*
X40938Y-50703D01*
X40991Y-50649D01*
X41133Y-50650D01*
X41372Y-50551D01*
X41555Y-50368D01*
X41654Y-50129D01*
X41655Y-49871D01*
X41556Y-49632D01*
X41540Y-49616D01*
X41540Y-41745D01*
X41325Y-41175D01*
X41268Y-41090D01*
X41049Y-40965D01*
X40014Y-42000D01*
X41049Y-43034D01*
X41268Y-42909D01*
X41520Y-42354D01*
X41540Y-41745D01*
X41540Y-49616D01*
X41373Y-49449D01*
X41134Y-49350D01*
X41034Y-49350D01*
X41034Y-43049D01*
X40000Y-42014D01*
X39985Y-42028D01*
X39985Y-42000D01*
X38950Y-40965D01*
X38731Y-41090D01*
X38479Y-41645D01*
X38459Y-42254D01*
X38674Y-42824D01*
X38731Y-42909D01*
X38950Y-43034D01*
X39985Y-42000D01*
X39985Y-42028D01*
X38965Y-43049D01*
X39090Y-43268D01*
X39645Y-43520D01*
X40254Y-43540D01*
X40824Y-43325D01*
X40909Y-43268D01*
X41034Y-43049D01*
X41034Y-49350D01*
X41000Y-49349D01*
X41000Y-47751D01*
X41000Y-44351D01*
X40848Y-43984D01*
X40567Y-43702D01*
X40199Y-43550D01*
X39801Y-43549D01*
X39434Y-43701D01*
X39152Y-43982D01*
X39000Y-44350D01*
X38999Y-44748D01*
X39048Y-44865D01*
X38613Y-45300D01*
X37544Y-45300D01*
X37727Y-45117D01*
X37879Y-44749D01*
X37880Y-44351D01*
X37728Y-43984D01*
X37447Y-43702D01*
X37079Y-43550D01*
X36681Y-43549D01*
X36314Y-43701D01*
X36032Y-43982D01*
X35880Y-44350D01*
X35879Y-44748D01*
X36031Y-45115D01*
X36215Y-45300D01*
X35750Y-45300D01*
X35577Y-45334D01*
X35431Y-45431D01*
X33554Y-47309D01*
X33545Y-47262D01*
X33417Y-47071D01*
X33310Y-47000D01*
X33417Y-46928D01*
X33545Y-46737D01*
X33590Y-46511D01*
X33590Y-46488D01*
X33545Y-46262D01*
X33417Y-46071D01*
X33310Y-46000D01*
X33417Y-45928D01*
X33545Y-45737D01*
X33590Y-45511D01*
X33590Y-45488D01*
X33545Y-45262D01*
X33417Y-45071D01*
X33310Y-45000D01*
X33417Y-44928D01*
X33545Y-44737D01*
X33590Y-44511D01*
X33590Y-44488D01*
X33545Y-44262D01*
X33417Y-44071D01*
X33310Y-44000D01*
X33417Y-43928D01*
X33545Y-43737D01*
X33590Y-43511D01*
X33590Y-43488D01*
X33545Y-43262D01*
X33417Y-43071D01*
X33310Y-43000D01*
X33417Y-42928D01*
X33545Y-42737D01*
X33590Y-42511D01*
X33590Y-42488D01*
X33545Y-42262D01*
X33417Y-42071D01*
X33310Y-42000D01*
X33417Y-41928D01*
X33545Y-41737D01*
X33590Y-41511D01*
X33590Y-41488D01*
X33545Y-41262D01*
X33417Y-41071D01*
X33225Y-40943D01*
X33000Y-40898D01*
X32774Y-40943D01*
X32582Y-41071D01*
X32577Y-41079D01*
X32551Y-41018D01*
X32481Y-40948D01*
X32389Y-40910D01*
X32290Y-40910D01*
X31610Y-40910D01*
X31518Y-40948D01*
X31448Y-41018D01*
X31410Y-41110D01*
X31410Y-41209D01*
X31410Y-41889D01*
X31448Y-41981D01*
X31518Y-42051D01*
X31578Y-42077D01*
X31454Y-42262D01*
X31410Y-42488D01*
X31410Y-42511D01*
X31454Y-42737D01*
X31582Y-42928D01*
X31689Y-43000D01*
X31582Y-43071D01*
X31454Y-43262D01*
X31410Y-43488D01*
X31410Y-43511D01*
X31454Y-43737D01*
X31582Y-43928D01*
X31689Y-44000D01*
X31582Y-44071D01*
X31454Y-44262D01*
X31410Y-44488D01*
X31410Y-44511D01*
X31454Y-44737D01*
X31582Y-44928D01*
X31689Y-45000D01*
X31582Y-45071D01*
X31454Y-45262D01*
X31410Y-45488D01*
X31410Y-45511D01*
X31454Y-45737D01*
X31582Y-45928D01*
X31689Y-46000D01*
X31582Y-46071D01*
X31454Y-46262D01*
X31410Y-46488D01*
X31410Y-46511D01*
X31454Y-46737D01*
X31582Y-46928D01*
X31689Y-47000D01*
X31582Y-47071D01*
X31454Y-47262D01*
X31410Y-47488D01*
X31410Y-47511D01*
X31454Y-47737D01*
X31582Y-47928D01*
X31689Y-48000D01*
X31582Y-48071D01*
X31454Y-48262D01*
X31410Y-48488D01*
X31410Y-48511D01*
X31454Y-48737D01*
X31582Y-48928D01*
X31774Y-49056D01*
X32000Y-49101D01*
X32225Y-49056D01*
X32385Y-48950D01*
X32614Y-48950D01*
X32774Y-49056D01*
X33000Y-49101D01*
X33225Y-49056D01*
X33417Y-48928D01*
X33545Y-48737D01*
X33581Y-48555D01*
X35936Y-46200D01*
X38800Y-46200D01*
X38972Y-46165D01*
X39118Y-46068D01*
X39684Y-45501D01*
X39800Y-45549D01*
X40198Y-45550D01*
X40565Y-45398D01*
X40847Y-45117D01*
X40999Y-44749D01*
X41000Y-44351D01*
X41000Y-47751D01*
X40848Y-47384D01*
X40567Y-47102D01*
X40199Y-46950D01*
X39801Y-46949D01*
X39434Y-47101D01*
X39152Y-47382D01*
X39000Y-47750D01*
X38999Y-48148D01*
X39151Y-48515D01*
X39432Y-48797D01*
X39800Y-48949D01*
X40198Y-48950D01*
X40565Y-48798D01*
X40847Y-48517D01*
X40999Y-48149D01*
X41000Y-47751D01*
X41000Y-49349D01*
X40876Y-49349D01*
X40637Y-49448D01*
X40454Y-49631D01*
X40355Y-49870D01*
X40354Y-50013D01*
X39645Y-50723D01*
X39645Y-49871D01*
X39546Y-49632D01*
X39363Y-49449D01*
X39124Y-49350D01*
X38916Y-49349D01*
X37831Y-48265D01*
X37879Y-48149D01*
X37880Y-47751D01*
X37728Y-47384D01*
X37447Y-47102D01*
X37079Y-46950D01*
X36681Y-46949D01*
X36314Y-47101D01*
X36032Y-47382D01*
X35880Y-47750D01*
X35879Y-48148D01*
X36031Y-48515D01*
X36312Y-48797D01*
X36680Y-48949D01*
X37078Y-48950D01*
X37195Y-48901D01*
X38344Y-50051D01*
X38344Y-50128D01*
X38443Y-50367D01*
X38626Y-50550D01*
X38865Y-50649D01*
X39123Y-50650D01*
X39362Y-50551D01*
X39545Y-50368D01*
X39644Y-50129D01*
X39645Y-49871D01*
X39645Y-50723D01*
X39568Y-50800D01*
X39231Y-50800D01*
X39096Y-50709D01*
X38872Y-50665D01*
X38127Y-50665D01*
X37903Y-50709D01*
X37713Y-50836D01*
X37587Y-51026D01*
X37542Y-51250D01*
X37587Y-51473D01*
X37713Y-51663D01*
X37843Y-51750D01*
X37713Y-51836D01*
X37587Y-52026D01*
X37542Y-52250D01*
X37587Y-52473D01*
X37713Y-52663D01*
X37764Y-52697D01*
X37654Y-52773D01*
X37509Y-52997D01*
X37471Y-53133D01*
X37548Y-53240D01*
X38490Y-53240D01*
X38490Y-53232D01*
X38510Y-53232D01*
X38510Y-53240D01*
X39451Y-53240D01*
X39528Y-53133D01*
X39490Y-52997D01*
X39345Y-52773D01*
X39235Y-52697D01*
X39286Y-52663D01*
X39412Y-52473D01*
X39457Y-52250D01*
X39412Y-52026D01*
X39286Y-51836D01*
X39156Y-51750D01*
X39231Y-51700D01*
X39755Y-51700D01*
X39927Y-51665D01*
X40073Y-51568D01*
X40580Y-51061D01*
X40542Y-51250D01*
X40587Y-51473D01*
X40713Y-51663D01*
X40843Y-51750D01*
X40768Y-51800D01*
X40750Y-51800D01*
X40577Y-51834D01*
X40431Y-51931D01*
X39681Y-52681D01*
X39584Y-52827D01*
X39550Y-53000D01*
X39550Y-54391D01*
X39546Y-54382D01*
X39528Y-54364D01*
X39528Y-53366D01*
X39451Y-53260D01*
X38510Y-53260D01*
X38510Y-53934D01*
X38864Y-53934D01*
X39125Y-53878D01*
X39345Y-53726D01*
X39490Y-53502D01*
X39528Y-53366D01*
X39528Y-54364D01*
X39363Y-54199D01*
X39124Y-54100D01*
X38866Y-54099D01*
X38627Y-54198D01*
X38490Y-54335D01*
X38490Y-53934D01*
X38490Y-53260D01*
X37548Y-53260D01*
X37471Y-53366D01*
X37509Y-53502D01*
X37654Y-53726D01*
X37874Y-53878D01*
X38135Y-53934D01*
X38490Y-53934D01*
X38490Y-54335D01*
X38444Y-54381D01*
X38345Y-54620D01*
X38344Y-54878D01*
X38443Y-55117D01*
X38626Y-55300D01*
X38865Y-55399D01*
X39123Y-55400D01*
X39362Y-55301D01*
X39545Y-55118D01*
X39550Y-55108D01*
X39550Y-55313D01*
X38697Y-56166D01*
X38600Y-56312D01*
X38565Y-56484D01*
X38565Y-57530D01*
X38465Y-57631D01*
X38365Y-57870D01*
X38365Y-58128D01*
X38464Y-58367D01*
X38647Y-58550D01*
X38885Y-58649D01*
X39144Y-58650D01*
X39383Y-58551D01*
X39566Y-58368D01*
X39665Y-58129D01*
X39665Y-57871D01*
X39567Y-57632D01*
X39465Y-57530D01*
X39465Y-56670D01*
X40318Y-55818D01*
X40415Y-55672D01*
X40450Y-55500D01*
X40450Y-55108D01*
X40453Y-55117D01*
X40636Y-55300D01*
X40875Y-55399D01*
X41133Y-55400D01*
X41372Y-55301D01*
X41555Y-55118D01*
X41654Y-54879D01*
X41655Y-54621D01*
X41556Y-54382D01*
X41373Y-54199D01*
X41134Y-54100D01*
X40876Y-54099D01*
X40637Y-54198D01*
X40454Y-54381D01*
X40450Y-54391D01*
X40450Y-53186D01*
X40581Y-53055D01*
X40542Y-53250D01*
X40587Y-53473D01*
X40713Y-53663D01*
X40903Y-53790D01*
X41127Y-53834D01*
X41872Y-53834D01*
X42096Y-53790D01*
X42286Y-53663D01*
X42412Y-53473D01*
X42457Y-53250D01*
X42412Y-53026D01*
X42286Y-52836D01*
X42156Y-52750D01*
X42286Y-52663D01*
X42412Y-52473D01*
X42457Y-52250D01*
X42412Y-52026D01*
X42286Y-51836D01*
X42156Y-51750D01*
X42286Y-51663D01*
X42412Y-51473D01*
X42457Y-51250D01*
X42412Y-51026D01*
X42391Y-50994D01*
X44436Y-48950D01*
X46614Y-48950D01*
X46774Y-49056D01*
X47000Y-49101D01*
X47225Y-49056D01*
X47385Y-48950D01*
X47614Y-48950D01*
X47774Y-49056D01*
X48000Y-49101D01*
X48225Y-49056D01*
X48417Y-48928D01*
X48545Y-48737D01*
X48590Y-48511D01*
X48590Y-48488D01*
X48545Y-48262D01*
X48417Y-48071D01*
X48310Y-48000D01*
X48417Y-47928D01*
X48545Y-47737D01*
X48590Y-47511D01*
X48590Y-47488D01*
X48545Y-47262D01*
X48417Y-47071D01*
X48310Y-47000D01*
X48417Y-46928D01*
X48545Y-46737D01*
X48590Y-46511D01*
X48590Y-46488D01*
X48545Y-46262D01*
X48417Y-46071D01*
X48310Y-46000D01*
X48417Y-45928D01*
X48545Y-45737D01*
X48590Y-45511D01*
X48590Y-45488D01*
X48545Y-45262D01*
X48417Y-45071D01*
X48310Y-45000D01*
X48417Y-44928D01*
X48545Y-44737D01*
X48590Y-44511D01*
X48590Y-44488D01*
X48545Y-44262D01*
X48417Y-44071D01*
X48400Y-44060D01*
X48583Y-43869D01*
X48679Y-43617D01*
X48679Y-51418D01*
X48666Y-51404D01*
X48299Y-51252D01*
X47902Y-51251D01*
X47535Y-51403D01*
X47254Y-51683D01*
X47102Y-52050D01*
X47101Y-52447D01*
X47253Y-52814D01*
X47533Y-53095D01*
X47900Y-53247D01*
X48297Y-53248D01*
X48664Y-53096D01*
X48945Y-52816D01*
X49097Y-52449D01*
X49098Y-52052D01*
X49098Y-60200D01*
X48900Y-60200D01*
X48900Y-58105D01*
X48900Y-56137D01*
X48801Y-55898D01*
X48618Y-55715D01*
X48379Y-55615D01*
X48121Y-55615D01*
X47882Y-55714D01*
X47699Y-55897D01*
X47600Y-56135D01*
X47599Y-56394D01*
X47698Y-56633D01*
X47881Y-56816D01*
X48120Y-56915D01*
X48378Y-56915D01*
X48617Y-56817D01*
X48800Y-56634D01*
X48899Y-56395D01*
X48900Y-56137D01*
X48900Y-58105D01*
X48801Y-57866D01*
X48618Y-57683D01*
X48379Y-57584D01*
X48236Y-57584D01*
X47333Y-56681D01*
X47187Y-56584D01*
X47015Y-56550D01*
X44265Y-56550D01*
X44093Y-56584D01*
X43947Y-56681D01*
X43279Y-57350D01*
X43137Y-57349D01*
X42898Y-57448D01*
X42715Y-57631D01*
X42615Y-57870D01*
X42615Y-58128D01*
X42714Y-58367D01*
X42896Y-58550D01*
X42170Y-58550D01*
X41634Y-58013D01*
X41634Y-57871D01*
X41535Y-57632D01*
X41352Y-57449D01*
X41114Y-57350D01*
X40855Y-57349D01*
X40616Y-57448D01*
X40433Y-57631D01*
X40334Y-57870D01*
X40334Y-58128D01*
X40432Y-58367D01*
X40615Y-58550D01*
X40854Y-58649D01*
X40997Y-58650D01*
X41666Y-59318D01*
X41812Y-59415D01*
X41984Y-59450D01*
X44234Y-59450D01*
X44406Y-59415D01*
X44552Y-59318D01*
X45220Y-58649D01*
X45362Y-58650D01*
X45601Y-58551D01*
X45784Y-58368D01*
X45884Y-58129D01*
X45884Y-57871D01*
X45785Y-57632D01*
X45603Y-57450D01*
X46829Y-57450D01*
X47600Y-58220D01*
X47599Y-58362D01*
X47698Y-58601D01*
X47881Y-58784D01*
X48120Y-58884D01*
X48378Y-58884D01*
X48617Y-58785D01*
X48800Y-58602D01*
X48899Y-58364D01*
X48900Y-58105D01*
X48900Y-60200D01*
X37384Y-60200D01*
X37384Y-57871D01*
X37285Y-57632D01*
X37102Y-57449D01*
X36864Y-57350D01*
X36605Y-57349D01*
X36366Y-57448D01*
X36183Y-57631D01*
X36084Y-57870D01*
X36084Y-58013D01*
X35547Y-58550D01*
X35519Y-58550D01*
X35519Y-57870D01*
X35412Y-57591D01*
X35390Y-57558D01*
X35251Y-57528D01*
X35237Y-57542D01*
X35237Y-57514D01*
X35207Y-57375D01*
X34934Y-57254D01*
X34636Y-57246D01*
X34357Y-57353D01*
X34324Y-57375D01*
X34294Y-57514D01*
X34765Y-57985D01*
X35237Y-57514D01*
X35237Y-57542D01*
X34779Y-58000D01*
X35251Y-58471D01*
X35390Y-58441D01*
X35511Y-58168D01*
X35519Y-57870D01*
X35519Y-58550D01*
X35223Y-58550D01*
X35237Y-58485D01*
X34765Y-58014D01*
X34751Y-58028D01*
X34751Y-58000D01*
X34279Y-57528D01*
X34141Y-57558D01*
X34019Y-57831D01*
X34012Y-58129D01*
X34119Y-58408D01*
X34141Y-58441D01*
X34279Y-58471D01*
X34751Y-58000D01*
X34751Y-58028D01*
X34294Y-58485D01*
X34308Y-58550D01*
X32898Y-58550D01*
X32898Y-52052D01*
X32746Y-51685D01*
X32466Y-51404D01*
X32099Y-51252D01*
X31702Y-51251D01*
X31335Y-51403D01*
X31054Y-51683D01*
X30902Y-52050D01*
X30901Y-52447D01*
X31053Y-52814D01*
X31333Y-53095D01*
X31700Y-53247D01*
X32097Y-53248D01*
X32464Y-53096D01*
X32745Y-52816D01*
X32897Y-52449D01*
X32898Y-52052D01*
X32898Y-58550D01*
X32702Y-58550D01*
X32503Y-58351D01*
X32503Y-56136D01*
X32396Y-55857D01*
X32374Y-55824D01*
X32235Y-55794D01*
X32221Y-55808D01*
X32221Y-55779D01*
X32191Y-55641D01*
X31918Y-55519D01*
X31620Y-55512D01*
X31341Y-55619D01*
X31308Y-55641D01*
X31278Y-55779D01*
X31750Y-56251D01*
X32221Y-55779D01*
X32221Y-55808D01*
X31764Y-56265D01*
X32235Y-56737D01*
X32374Y-56707D01*
X32495Y-56434D01*
X32503Y-56136D01*
X32503Y-58351D01*
X32399Y-58247D01*
X32400Y-58105D01*
X32301Y-57866D01*
X32221Y-57786D01*
X32221Y-56751D01*
X31750Y-56279D01*
X31735Y-56294D01*
X31735Y-56265D01*
X31264Y-55794D01*
X31125Y-55824D01*
X31004Y-56096D01*
X30996Y-56395D01*
X31103Y-56673D01*
X31125Y-56707D01*
X31264Y-56737D01*
X31735Y-56265D01*
X31735Y-56294D01*
X31278Y-56751D01*
X31308Y-56890D01*
X31581Y-57011D01*
X31879Y-57019D01*
X32158Y-56912D01*
X32191Y-56890D01*
X32221Y-56751D01*
X32221Y-57786D01*
X32118Y-57683D01*
X31879Y-57584D01*
X31621Y-57584D01*
X31382Y-57682D01*
X31199Y-57865D01*
X31100Y-58104D01*
X31099Y-58362D01*
X31198Y-58601D01*
X31381Y-58784D01*
X31620Y-58884D01*
X31763Y-58884D01*
X32197Y-59318D01*
X32343Y-59415D01*
X32515Y-59450D01*
X35734Y-59450D01*
X35906Y-59415D01*
X36052Y-59318D01*
X36720Y-58649D01*
X36862Y-58650D01*
X37101Y-58551D01*
X37284Y-58368D01*
X37384Y-58129D01*
X37384Y-57871D01*
X37384Y-60200D01*
X30300Y-60200D01*
X30300Y-40800D01*
X39051Y-40800D01*
X38965Y-40950D01*
X40000Y-41985D01*
X41034Y-40950D01*
X40948Y-40800D01*
X49700Y-40800D01*
X49700Y-60200D01*
M02*
